<svg width="574" height="192" viewBox="0 0 574 192" fill="none" xmlns="http://www.w3.org/2000/svg">
<path fill-rule="evenodd" clip-rule="evenodd" d="M353.159 30.2934C353.192 32.6511 353.249 35.0729 353.325 37.5106L353.639 30.5844C353.486 30.4889 353.325 30.3918 353.159 30.2934Z" fill="#FF9F45"/>
<path d="M2.63948 11.5844L10.6395 37.0844C20.6395 35.5844 39.8395 37.4844 36.6395 57.0844C33.4395 76.6844 14.6395 74.5844 5.63948 71.0844V98.0844C13.4728 97.0844 29.1395 98.0844 29.1395 110.084C29.1395 122.084 21.4728 126.418 17.6395 127.084C13.4728 128.418 4.63948 130.984 2.63948 130.584C0.639477 130.184 3.80614 149.418 5.63948 159.084C19.3805 159.971 48.3683 157.871 65.6395 144.006C67.8503 142.231 69.8692 140.263 71.6395 138.084C71.877 137.792 72.1084 137.498 72.3337 137.203C85.2872 120.232 78.4014 98.4629 71.6395 86.5669C70.7911 85.0744 69.9446 83.7372 69.1395 82.5844L65.6395 77.0844L62.6395 72.5844C65.2267 70.8823 68.7038 67.7173 71.6395 63.3143C75.8902 56.9389 79.0055 47.968 76.6395 37.0844C72.6395 18.6844 55.6395 8.7511 47.6395 6.08443C43.4728 5.08443 33.0395 3.08444 24.6395 3.08444C16.2395 3.08444 6.47281 8.7511 2.63948 11.5844Z" fill="#4E342E"/>
<path fill-rule="evenodd" clip-rule="evenodd" d="M71.6395 63.3143V86.5669C78.4014 98.4629 85.2872 120.232 72.3337 137.203L71.6395 159.084V188.728C101.936 191.107 152.639 182.57 152.639 130.584C152.639 107.577 143.393 91.9648 130.639 81.6195C112.572 66.9639 87.4669 62.8786 71.6395 63.3143ZM93.6395 153.584V106.084H95.1395C106.639 107.418 129.039 114.684 126.639 133.084C124.239 151.484 103.639 154.418 93.6395 153.584Z" fill="#4E342E"/>
<path d="M130.639 81.6195C143.393 91.9648 152.639 107.577 152.639 130.584H206.389H207.639C209.639 129.918 214.239 126.484 216.639 118.084C217.409 115.392 217.29 113.062 216.664 111.084C214.847 105.349 208.755 102.584 207.639 102.584H162.639V16.5844C161.806 14.0844 157.739 8.48443 148.139 6.08443C138.539 3.68443 132.473 12.0844 130.639 16.5844V81.6195Z" fill="#4E342E"/>
<path d="M216.639 118.084C214.239 126.484 209.639 129.918 207.639 130.584H206.389C207.473 135.038 213.739 143.662 230.139 142.525L258.139 140.584C268.473 139.751 289.539 137.784 291.139 136.584C293.139 135.084 298.139 131.584 299.139 123.584C299.939 117.184 292.806 112.584 289.139 111.084H281.139H278.139C275.639 110.918 270.139 110.684 268.139 111.084C266.139 111.484 263.639 108.584 262.639 107.084C262.806 106.084 263.039 103.784 262.639 102.584C262.239 101.384 264.806 59.7511 266.139 39.0844H285.139H291.639C295.582 36.9617 302.945 31.2526 303.639 24.2159C303.708 23.5177 303.712 22.8065 303.639 22.0844C302.839 14.0844 295.306 9.41777 291.639 8.08444H207.639C203.473 9.2511 195.439 13.6844 196.639 22.0844C197.839 30.4844 204.473 34.5844 207.639 35.5844C208.839 36.7844 212.139 37.7511 213.639 38.0844H227.139C229.539 38.0844 230.806 40.0844 231.139 41.0844L230.139 107.084V111.084H216.664C217.29 113.062 217.409 115.392 216.639 118.084Z" fill="#4E342E"/>
<path d="M378.639 5.58443C375.639 1.58443 360.639 0.0844347 355.438 5.58443C353.463 7.67331 352.988 18.1284 353.159 30.2934C353.325 30.3918 353.486 30.4889 353.639 30.5844L353.325 37.5106C353.884 55.6125 355.438 74.5844 355.438 74.5844C360.12 89.1083 363.324 112.377 353.697 130.584L353.639 140.584C353.639 140.584 376.639 145.084 382.139 140.584C387.639 136.084 383.139 86.0844 384.139 81.5844C385.139 77.0844 426.139 78.5844 428.639 81.5844C431.139 84.5844 428.139 135.584 433.639 140.584C439.139 145.584 455.139 144.584 461.612 140.584C468.084 136.584 461.612 68.5844 461.612 68.5844V32.5844C462.501 19.452 459.516 9.11258 457.912 5.58443C453.185 1.08443 433.639 0.584428 428.639 5.58443C423.639 10.5844 433.139 40.5844 427.139 45.0844C421.139 49.5844 380.639 53.0844 378.639 45.0844C376.639 37.0844 381.639 9.58443 378.639 5.58443Z" fill="#4E342E"/>
<path d="M558.139 36.5844L461.612 32.5844V68.5844H481.639C484.439 68.5844 485.139 72.5844 485.139 74.5844C485.639 99.4178 486.939 150.284 488.139 155.084C489.339 159.884 491.639 160.418 492.639 160.084C499.306 160.084 513.439 159.784 516.639 158.584C519.839 157.384 521.306 152.751 521.639 150.584L519.639 74.5844C518.039 71.7844 520.306 69.4178 521.639 68.5844H558.139C561.806 67.4178 569.539 62.8844 571.139 54.0844C572.739 45.2844 563.139 38.7511 558.139 36.5844Z" fill="#4E342E"/>
<path d="M302.139 76.5844C309.339 48.5844 338.806 48.9178 352.639 52.5844L353.325 37.5106C353.249 35.0729 353.192 32.6511 353.159 30.2934C345.923 26.0201 326.708 19.2357 303.639 24.2159C302.945 31.2526 295.582 36.9617 291.639 39.0844H285.139C276.806 54.5844 264.339 90.6844 281.139 111.084H289.139C292.806 112.584 299.939 117.184 299.139 123.584C298.139 131.584 293.139 135.084 291.139 136.584C305.139 155.784 328.639 151.584 338.639 147.084C342.943 144.255 346.459 140.964 349.304 137.351C349.577 137.004 349.844 136.654 350.106 136.301C350.281 136.063 350.454 135.824 350.624 135.585C351.768 133.97 352.789 132.3 353.697 130.584C363.324 112.377 360.12 89.1083 355.438 74.5844C354.854 72.7728 354.247 71.0972 353.639 69.5844L329.139 66.5844L327.639 89.0844C331.14 89.5844 343.139 95.5844 341.639 106.084C340.139 116.584 325.639 119.584 324.139 118.584C322.639 117.584 293.139 111.584 302.139 76.5844Z" fill="#4E342E"/>
<path d="M350.639 135.584C350.634 135.584 350.629 135.584 350.624 135.585M461.612 32.5844L558.139 36.5844C563.139 38.7511 572.739 45.2844 571.139 54.0844C569.539 62.8844 561.806 67.4178 558.139 68.5844H521.639C520.306 69.4178 518.039 71.7844 519.639 74.5844L521.639 150.584C521.306 152.751 519.839 157.384 516.639 158.584C513.439 159.784 499.306 160.084 492.639 160.084C491.639 160.418 489.339 159.884 488.139 155.084C486.939 150.284 485.639 99.4178 485.139 74.5844C485.139 72.5844 484.439 68.5844 481.639 68.5844M461.612 32.5844V68.5844M461.612 32.5844C462.501 19.452 459.516 9.11258 457.912 5.58443C453.185 1.08443 433.639 0.584428 428.639 5.58443C423.639 10.5844 433.139 40.5844 427.139 45.0844C421.139 49.5844 380.639 53.0844 378.639 45.0844C376.639 37.0844 381.639 9.58443 378.639 5.58443C375.639 1.58443 360.639 0.0844347 355.438 5.58443C353.463 7.67331 352.988 18.1284 353.159 30.2934M481.639 68.5844H461.612M481.639 68.5844C479.284 68.5844 468.873 68.5844 461.612 68.5844M152.639 130.584C152.639 182.57 101.936 191.107 71.6395 188.728V159.084M152.639 130.584C152.639 107.577 143.393 91.9648 130.639 81.6195M152.639 130.584H206.389M71.6395 63.3143C68.7038 67.7173 65.2267 70.8823 62.6395 72.5844L65.6395 77.0844L69.1395 82.5844C69.9446 83.7372 70.7911 85.0744 71.6395 86.5669M71.6395 63.3143C75.8902 56.9389 79.0055 47.968 76.6395 37.0844C72.6395 18.6844 55.6395 8.7511 47.6395 6.08443C43.4728 5.08443 33.0395 3.08444 24.6395 3.08444C16.2395 3.08444 6.47281 8.7511 2.63948 11.5844L10.6395 37.0844C20.6395 35.5844 39.8395 37.4844 36.6395 57.0844C33.4395 76.6844 14.6395 74.5844 5.63948 71.0844V98.0844C13.4728 97.0844 29.1395 98.0844 29.1395 110.084C29.1395 122.084 21.4728 126.418 17.6395 127.084C13.4728 128.418 4.63948 130.984 2.63948 130.584C0.639477 130.184 3.80614 149.418 5.63948 159.084C19.3805 159.971 48.3683 157.871 65.6395 144.006C67.8503 142.231 69.8692 140.263 71.6395 138.084C71.877 137.792 72.1084 137.498 72.3337 137.203M71.6395 63.3143V86.5669M71.6395 63.3143C87.4669 62.8786 112.572 66.9639 130.639 81.6195M71.6395 86.5669C78.4014 98.4629 85.2872 120.232 72.3337 137.203M71.6395 155.584V159.084M72.3337 137.203L71.6395 159.084M130.639 81.6195V16.5844C132.473 12.0844 138.539 3.68443 148.139 6.08443C157.739 8.48443 161.806 14.0844 162.639 16.5844V102.584M162.639 102.584C177.139 102.584 206.439 102.584 207.639 102.584M162.639 102.584H207.639M207.639 102.584C208.755 102.584 214.847 105.349 216.664 111.084M291.139 136.584C293.139 135.084 298.139 131.584 299.139 123.584C299.939 117.184 292.806 112.584 289.139 111.084H281.139M291.139 136.584C289.539 137.784 268.473 139.751 258.139 140.584L230.139 142.525C213.739 143.662 207.473 135.038 206.389 130.584M291.139 136.584C305.139 155.784 328.639 151.584 338.639 147.084C342.943 144.255 346.459 140.964 349.304 137.351C349.577 137.004 349.844 136.654 350.106 136.301C350.281 136.063 350.454 135.824 350.624 135.585M216.664 111.084C217.29 113.062 217.409 115.392 216.639 118.084C214.239 126.484 209.639 129.918 207.639 130.584H206.389M216.664 111.084H230.139V107.084L231.139 41.0844C230.806 40.0844 229.539 38.0844 227.139 38.0844M227.139 38.0844C224.739 38.0844 217.139 38.0844 213.639 38.0844M227.139 38.0844H213.639M213.639 38.0844C212.139 37.7511 208.839 36.7844 207.639 35.5844C204.473 34.5844 197.839 30.4844 196.639 22.0844C195.439 13.6844 203.473 9.2511 207.639 8.08444H291.639C295.306 9.41777 302.839 14.0844 303.639 22.0844C303.712 22.8065 303.708 23.5177 303.639 24.2159M303.639 24.2159C302.945 31.2526 295.582 36.9617 291.639 39.0844H285.139M303.639 24.2159C326.708 19.2357 345.923 26.0201 353.159 30.2934M285.139 39.0844H266.139C264.806 59.7511 262.239 101.384 262.639 102.584C263.039 103.784 262.806 106.084 262.639 107.084C263.639 108.584 266.139 111.484 268.139 111.084C270.139 110.684 275.639 110.918 278.139 111.084H281.139M285.139 39.0844C276.806 54.5844 264.339 90.6844 281.139 111.084M350.624 135.585C351.768 133.97 352.789 132.3 353.697 130.584M355.438 74.5844C354.854 72.7728 354.247 71.0972 353.639 69.5844L329.139 66.5844L327.639 89.0844C331.14 89.5844 343.139 95.5844 341.639 106.084C340.139 116.584 325.639 119.584 324.139 118.584C322.639 117.584 293.139 111.584 302.139 76.5844C309.339 48.5844 338.806 48.9178 352.639 52.5844L353.325 37.5106M355.438 74.5844C360.12 89.1083 363.324 112.377 353.697 130.584M355.438 74.5844C355.438 74.5844 353.884 55.6125 353.325 37.5106M461.612 68.5844C461.612 68.5844 468.084 136.584 461.612 140.584C455.139 144.584 439.139 145.584 433.639 140.584C428.139 135.584 431.139 84.5844 428.639 81.5844C426.139 78.5844 385.139 77.0844 384.139 81.5844C383.139 86.0844 387.639 136.084 382.139 140.584C376.639 145.084 353.639 140.584 353.639 140.584L353.697 130.584M353.325 37.5106L353.639 30.5844C353.486 30.4889 353.325 30.3918 353.159 30.2934M353.325 37.5106C353.249 35.0729 353.192 32.6511 353.159 30.2934M93.6395 106.084V153.584C103.639 154.418 124.239 151.484 126.639 133.084C129.039 114.684 106.639 107.418 95.1395 106.084H93.6395Z" stroke="black" stroke-width="4"/>
<path d="M350.639 135.584C350.634 135.584 350.629 135.584 350.624 135.585M461.612 32.5844L558.139 36.5844C563.139 38.7511 572.739 45.2844 571.139 54.0844C569.539 62.8844 561.806 67.4178 558.139 68.5844H521.639C520.306 69.4178 518.039 71.7844 519.639 74.5844L521.639 150.584C521.306 152.751 519.839 157.384 516.639 158.584C513.439 159.784 499.306 160.084 492.639 160.084C491.639 160.418 489.339 159.884 488.139 155.084C486.939 150.284 485.639 99.4178 485.139 74.5844C485.139 72.5844 484.439 68.5844 481.639 68.5844M461.612 32.5844V68.5844M461.612 32.5844C462.501 19.452 459.516 9.11258 457.912 5.58443C453.185 1.08443 433.639 0.584428 428.639 5.58443C423.639 10.5844 433.139 40.5844 427.139 45.0844C421.139 49.5844 380.639 53.0844 378.639 45.0844C376.639 37.0844 381.639 9.58443 378.639 5.58443C375.639 1.58443 360.639 0.0844347 355.438 5.58443C353.463 7.67331 352.988 18.1284 353.159 30.2934M481.639 68.5844H461.612M481.639 68.5844C479.284 68.5844 468.873 68.5844 461.612 68.5844M152.639 130.584C152.639 182.57 101.936 191.107 71.6395 188.728V159.084M152.639 130.584C152.639 107.577 143.393 91.9648 130.639 81.6195M152.639 130.584H206.389M71.6395 63.3143C68.7038 67.7173 65.2267 70.8823 62.6395 72.5844L65.6395 77.0844L69.1395 82.5844C69.9446 83.7372 70.7911 85.0744 71.6395 86.5669M71.6395 63.3143C75.8902 56.9389 79.0055 47.968 76.6395 37.0844C72.6395 18.6844 55.6395 8.7511 47.6395 6.08443C43.4728 5.08443 33.0395 3.08444 24.6395 3.08444C16.2395 3.08444 6.47281 8.7511 2.63948 11.5844L10.6395 37.0844C20.6395 35.5844 39.8395 37.4844 36.6395 57.0844C33.4395 76.6844 14.6395 74.5844 5.63948 71.0844V98.0844C13.4728 97.0844 29.1395 98.0844 29.1395 110.084C29.1395 122.084 21.4728 126.418 17.6395 127.084C13.4728 128.418 4.63948 130.984 2.63948 130.584C0.639477 130.184 3.80614 149.418 5.63948 159.084C19.3805 159.971 48.3683 157.871 65.6395 144.006C67.8503 142.231 69.8692 140.263 71.6395 138.084C71.877 137.792 72.1084 137.498 72.3337 137.203M71.6395 63.3143V86.5669M71.6395 63.3143C87.4669 62.8786 112.572 66.9639 130.639 81.6195M71.6395 86.5669C78.4014 98.4629 85.2872 120.232 72.3337 137.203M71.6395 155.584V159.084M72.3337 137.203L71.6395 159.084M130.639 81.6195V16.5844C132.473 12.0844 138.539 3.68443 148.139 6.08443C157.739 8.48443 161.806 14.0844 162.639 16.5844V102.584M162.639 102.584C177.139 102.584 206.439 102.584 207.639 102.584M162.639 102.584H207.639M207.639 102.584C208.755 102.584 214.847 105.349 216.664 111.084M291.139 136.584C293.139 135.084 298.139 131.584 299.139 123.584C299.939 117.184 292.806 112.584 289.139 111.084H281.139M291.139 136.584C289.539 137.784 268.473 139.751 258.139 140.584L230.139 142.525C213.739 143.662 207.473 135.038 206.389 130.584M291.139 136.584C305.139 155.784 328.639 151.584 338.639 147.084C342.943 144.255 346.459 140.964 349.304 137.351C349.577 137.004 349.844 136.654 350.106 136.301C350.281 136.063 350.454 135.824 350.624 135.585M216.664 111.084C217.29 113.062 217.409 115.392 216.639 118.084C214.239 126.484 209.639 129.918 207.639 130.584H206.389M216.664 111.084H230.139V107.084L231.139 41.0844C230.806 40.0844 229.539 38.0844 227.139 38.0844M227.139 38.0844C224.739 38.0844 217.139 38.0844 213.639 38.0844M227.139 38.0844H213.639M213.639 38.0844C212.139 37.7511 208.839 36.7844 207.639 35.5844C204.473 34.5844 197.839 30.4844 196.639 22.0844C195.439 13.6844 203.473 9.2511 207.639 8.08444H291.639C295.306 9.41777 302.839 14.0844 303.639 22.0844C303.712 22.8065 303.708 23.5177 303.639 24.2159M303.639 24.2159C302.945 31.2526 295.582 36.9617 291.639 39.0844H285.139M303.639 24.2159C326.708 19.2357 345.923 26.0201 353.159 30.2934M285.139 39.0844H266.139C264.806 59.7511 262.239 101.384 262.639 102.584C263.039 103.784 262.806 106.084 262.639 107.084C263.639 108.584 266.139 111.484 268.139 111.084C270.139 110.684 275.639 110.918 278.139 111.084H281.139M285.139 39.0844C276.806 54.5844 264.339 90.6844 281.139 111.084M350.624 135.585C351.768 133.97 352.789 132.3 353.697 130.584M355.438 74.5844C354.854 72.7728 354.247 71.0972 353.639 69.5844L329.139 66.5844L327.639 89.0844C331.14 89.5844 343.139 95.5844 341.639 106.084C340.139 116.584 325.639 119.584 324.139 118.584C322.639 117.584 293.139 111.584 302.139 76.5844C309.339 48.5844 338.806 48.9178 352.639 52.5844L353.325 37.5106M355.438 74.5844C360.12 89.1083 363.324 112.377 353.697 130.584M355.438 74.5844C355.438 74.5844 353.884 55.6125 353.325 37.5106M461.612 68.5844C461.612 68.5844 468.084 136.584 461.612 140.584C455.139 144.584 439.139 145.584 433.639 140.584C428.139 135.584 431.139 84.5844 428.639 81.5844C426.139 78.5844 385.139 77.0844 384.139 81.5844C383.139 86.0844 387.639 136.084 382.139 140.584C376.639 145.084 353.639 140.584 353.639 140.584L353.697 130.584M353.325 37.5106L353.639 30.5844C353.486 30.4889 353.325 30.3918 353.159 30.2934M353.325 37.5106C353.249 35.0729 353.192 32.6511 353.159 30.2934M93.6395 106.084V153.584C103.639 154.418 124.239 151.484 126.639 133.084C129.039 114.684 106.639 107.418 95.1395 106.084H93.6395Z" stroke="black" stroke-opacity="0.2" stroke-width="4"/>
</svg>
