<svg width="571" height="189" viewBox="0 0 571 189" fill="none" xmlns="http://www.w3.org/2000/svg">
<path fill-rule="evenodd" clip-rule="evenodd" d="M351.659 28.7934C351.692 31.1511 351.749 33.5729 351.825 36.0106L352.139 29.0844C351.986 28.9889 351.825 28.8918 351.659 28.7934Z" fill="#FF9F45"/>
<path d="M1.13937 10.0844L9.13937 35.5844C19.1394 34.0844 38.3394 35.9844 35.1394 55.5844C31.9394 75.1844 13.1394 73.0844 4.13937 69.5844V96.5844C11.9727 95.5844 27.6394 96.5844 27.6394 108.584C27.6394 120.584 19.9727 124.918 16.1394 125.584C11.9727 126.918 3.13937 129.484 1.13937 129.084C-0.86063 128.684 2.30604 147.918 4.13937 157.584C17.8804 158.471 46.8682 156.371 64.1394 142.506C66.3502 140.731 68.3691 138.763 70.1394 136.584C70.3769 136.292 70.6082 135.998 70.8336 135.703C83.7871 118.732 76.9013 96.9629 70.1394 85.0669C69.2909 83.5744 68.4445 82.2372 67.6394 81.0844L64.1394 75.5844L61.1394 71.0844C63.7266 69.3823 67.2037 66.2173 70.1394 61.8143C74.3901 55.4389 77.5054 46.468 75.1394 35.5844C71.1394 17.1844 54.1394 7.2511 46.1394 4.58443C41.9727 3.58443 31.5394 1.58444 23.1394 1.58444C14.7394 1.58444 4.9727 7.2511 1.13937 10.0844Z" fill="#FFEB3B"/>
<path fill-rule="evenodd" clip-rule="evenodd" d="M70.1394 61.8143V85.0669C76.9013 96.9629 83.7871 118.732 70.8336 135.703L70.1394 157.584V187.228C100.436 189.607 151.139 181.07 151.139 129.084C151.139 106.077 141.893 90.4648 129.139 80.1195C111.072 65.4639 85.9668 61.3786 70.1394 61.8143ZM92.1394 152.084V104.584H93.6394C105.139 105.918 127.539 113.184 125.139 131.584C122.739 149.984 102.139 152.918 92.1394 152.084Z" fill="#FBC02D"/>
<path d="M129.139 80.1195C141.893 90.4648 151.139 106.077 151.139 129.084H204.889H206.139C208.139 128.418 212.739 124.984 215.139 116.584C215.909 113.892 215.79 111.562 215.164 109.584C213.347 103.849 207.255 101.084 206.139 101.084H161.139V15.0844C160.306 12.5844 156.239 6.98443 146.639 4.58443C137.039 2.18443 130.973 10.5844 129.139 15.0844V80.1195Z" fill="#FFB74D"/>
<path d="M215.139 116.584C212.739 124.984 208.139 128.418 206.139 129.084H204.889C205.973 133.538 212.239 142.162 228.639 141.025L256.639 139.084C266.973 138.251 288.039 136.284 289.639 135.084C291.639 133.584 296.639 130.084 297.639 122.084C298.439 115.684 291.306 111.084 287.639 109.584H279.639H276.639C274.139 109.418 268.639 109.184 266.639 109.584C264.639 109.984 262.139 107.084 261.139 105.584C261.306 104.584 261.539 102.284 261.139 101.084C260.739 99.8844 263.306 58.2511 264.639 37.5844H283.639H290.139C294.082 35.4617 301.445 29.7526 302.139 22.7159C302.208 22.0177 302.212 21.3065 302.139 20.5844C301.339 12.5844 293.806 7.91777 290.139 6.58444H206.139C201.973 7.7511 193.939 12.1844 195.139 20.5844C196.339 28.9844 202.973 33.0844 206.139 34.0844C207.339 35.2844 210.639 36.2511 212.139 36.5844H225.639C228.039 36.5844 229.306 38.5844 229.639 39.5844L228.639 105.584V109.584H215.164C215.79 111.562 215.909 113.892 215.139 116.584Z" fill="#FF9800"/>
<path d="M300.639 75.0844C307.839 47.0844 337.306 47.4178 351.139 51.0844L351.825 36.0106C351.749 33.5729 351.692 31.1511 351.659 28.7934C344.423 24.5201 325.208 17.7357 302.139 22.7159C301.445 29.7526 294.082 35.4617 290.139 37.5844H283.639C275.306 53.0844 262.839 89.1844 279.639 109.584H287.639C291.306 111.084 298.439 115.684 297.639 122.084C296.639 130.084 291.639 133.584 289.639 135.084C303.639 154.284 327.139 150.084 337.139 145.584C341.442 142.755 344.959 139.464 347.804 135.851C348.077 135.504 348.344 135.154 348.605 134.801C348.781 134.563 348.954 134.324 349.124 134.085C350.268 132.47 351.289 130.8 352.196 129.084C361.824 110.877 358.62 87.6083 353.938 73.0844C353.354 71.2728 352.747 69.5972 352.139 68.0844L327.639 65.0844L326.139 87.5844C329.639 88.0844 341.639 94.0844 340.139 104.584C338.639 115.084 324.139 118.084 322.639 117.084C321.139 116.084 291.639 110.084 300.639 75.0844Z" fill="#F57C00"/>
<path d="M377.139 4.08443C374.139 0.0844347 359.139 -1.41557 353.938 4.08443C351.963 6.17331 351.488 16.6284 351.659 28.7934C351.825 28.8918 351.986 28.9889 352.139 29.0844L351.825 36.0106C352.384 54.1125 353.938 73.0844 353.938 73.0844C358.62 87.6083 361.824 110.877 352.196 129.084L352.139 139.084C352.139 139.084 375.139 143.584 380.639 139.084C386.139 134.584 381.639 84.5844 382.639 80.0844C383.639 75.5844 424.639 77.0844 427.139 80.0844C429.639 83.0844 426.639 134.084 432.139 139.084C437.639 144.084 453.639 143.084 460.112 139.084C466.584 135.084 460.112 67.0844 460.112 67.0844V31.0844C461.001 17.952 458.016 7.61258 456.412 4.08443C451.685 -0.415572 432.139 -0.915572 427.139 4.08443C422.139 9.08444 431.639 39.0844 425.639 43.5844C419.639 48.0844 379.139 51.5844 377.139 43.5844C375.139 35.5844 380.139 8.08443 377.139 4.08443Z" fill="#E64A19"/>
<path d="M556.639 35.0844L460.112 31.0844V67.0844H480.139C482.939 67.0844 483.639 71.0844 483.639 73.0844C484.139 97.9178 485.439 148.784 486.639 153.584C487.839 158.384 490.139 158.918 491.139 158.584C497.806 158.584 511.939 158.284 515.139 157.084C518.339 155.884 519.806 151.251 520.139 149.084L518.139 73.0844C516.539 70.2844 518.806 67.9178 520.139 67.0844H556.639C560.306 65.9178 568.039 61.3844 569.639 52.5844C571.239 43.7844 561.639 37.2511 556.639 35.0844Z" fill="#8D6E63"/>
<path d="M349.139 134.084C349.134 134.084 349.129 134.084 349.124 134.085M460.112 31.0844L556.639 35.0844C561.639 37.2511 571.239 43.7844 569.639 52.5844C568.039 61.3844 560.306 65.9178 556.639 67.0844H520.139C518.806 67.9178 516.539 70.2844 518.139 73.0844L520.139 149.084C519.806 151.251 518.339 155.884 515.139 157.084C511.939 158.284 497.806 158.584 491.139 158.584C490.139 158.918 487.839 158.384 486.639 153.584C485.439 148.784 484.139 97.9178 483.639 73.0844C483.639 71.0844 482.939 67.0844 480.139 67.0844M460.112 31.0844V67.0844M460.112 31.0844C461.001 17.952 458.016 7.61258 456.412 4.08443C451.685 -0.415572 432.139 -0.915572 427.139 4.08443C422.139 9.08444 431.639 39.0844 425.639 43.5844C419.639 48.0844 379.139 51.5844 377.139 43.5844C375.139 35.5844 380.139 8.08443 377.139 4.08443C374.139 0.0844347 359.139 -1.41557 353.938 4.08443C351.963 6.17331 351.488 16.6284 351.659 28.7934M480.139 67.0844H460.112M480.139 67.0844C477.784 67.0844 467.372 67.0844 460.112 67.0844M151.139 129.084C151.139 181.07 100.436 189.607 70.1394 187.228V157.584M151.139 129.084C151.139 106.077 141.893 90.4648 129.139 80.1195M151.139 129.084H204.889M70.1394 61.8143C67.2037 66.2173 63.7266 69.3823 61.1394 71.0844L64.1394 75.5844L67.6394 81.0844C68.4445 82.2372 69.2909 83.5744 70.1394 85.0669M70.1394 61.8143C74.3901 55.4389 77.5054 46.468 75.1394 35.5844C71.1394 17.1844 54.1394 7.2511 46.1394 4.58443C41.9727 3.58443 31.5394 1.58444 23.1394 1.58444C14.7394 1.58444 4.9727 7.2511 1.13937 10.0844L9.13937 35.5844C19.1394 34.0844 38.3394 35.9844 35.1394 55.5844C31.9394 75.1844 13.1394 73.0844 4.13937 69.5844V96.5844C11.9727 95.5844 27.6394 96.5844 27.6394 108.584C27.6394 120.584 19.9727 124.918 16.1394 125.584C11.9727 126.918 3.13937 129.484 1.13937 129.084C-0.86063 128.684 2.30604 147.918 4.13937 157.584C17.8804 158.471 46.8682 156.371 64.1394 142.506C66.3502 140.731 68.3691 138.763 70.1394 136.584C70.3769 136.292 70.6082 135.998 70.8336 135.703M70.1394 61.8143V85.0669M70.1394 61.8143C85.9668 61.3786 111.072 65.4639 129.139 80.1195M70.1394 85.0669C76.9013 96.9629 83.7871 118.732 70.8336 135.703M70.1394 154.084V157.584M70.8336 135.703L70.1394 157.584M129.139 80.1195V15.0844C130.973 10.5844 137.039 2.18443 146.639 4.58443C156.239 6.98443 160.306 12.5844 161.139 15.0844V101.084M161.139 101.084C175.639 101.084 204.939 101.084 206.139 101.084M161.139 101.084H206.139M206.139 101.084C207.255 101.084 213.347 103.849 215.164 109.584M289.639 135.084C291.639 133.584 296.639 130.084 297.639 122.084C298.439 115.684 291.306 111.084 287.639 109.584H279.639M289.639 135.084C288.039 136.284 266.973 138.251 256.639 139.084L228.639 141.025C212.239 142.162 205.973 133.538 204.889 129.084M289.639 135.084C303.639 154.284 327.139 150.084 337.139 145.584C341.442 142.755 344.959 139.464 347.804 135.851C348.077 135.504 348.344 135.154 348.605 134.801C348.781 134.563 348.954 134.324 349.124 134.085M215.164 109.584C215.79 111.562 215.909 113.892 215.139 116.584C212.739 124.984 208.139 128.418 206.139 129.084H204.889M215.164 109.584H228.639V105.584L229.639 39.5844C229.306 38.5844 228.039 36.5844 225.639 36.5844M225.639 36.5844C223.239 36.5844 215.639 36.5844 212.139 36.5844M225.639 36.5844H212.139M212.139 36.5844C210.639 36.2511 207.339 35.2844 206.139 34.0844C202.973 33.0844 196.339 28.9844 195.139 20.5844C193.939 12.1844 201.973 7.7511 206.139 6.58444H290.139C293.806 7.91777 301.339 12.5844 302.139 20.5844C302.212 21.3065 302.208 22.0177 302.139 22.7159M302.139 22.7159C301.445 29.7526 294.082 35.4617 290.139 37.5844H283.639M302.139 22.7159C325.208 17.7357 344.423 24.5201 351.659 28.7934M283.639 37.5844H264.639C263.306 58.2511 260.739 99.8844 261.139 101.084C261.539 102.284 261.306 104.584 261.139 105.584C262.139 107.084 264.639 109.984 266.639 109.584C268.639 109.184 274.139 109.418 276.639 109.584H279.639M283.639 37.5844C275.306 53.0844 262.839 89.1844 279.639 109.584M349.124 134.085C350.268 132.47 351.289 130.8 352.196 129.084M353.938 73.0844C353.354 71.2728 352.747 69.5972 352.139 68.0844L327.639 65.0844L326.139 87.5844C329.639 88.0844 341.639 94.0844 340.139 104.584C338.639 115.084 324.139 118.084 322.639 117.084C321.139 116.084 291.639 110.084 300.639 75.0844C307.839 47.0844 337.306 47.4178 351.139 51.0844L351.825 36.0106M353.938 73.0844C358.62 87.6083 361.824 110.877 352.196 129.084M353.938 73.0844C353.938 73.0844 352.384 54.1125 351.825 36.0106M460.112 67.0844C460.112 67.0844 466.584 135.084 460.112 139.084C453.639 143.084 437.639 144.084 432.139 139.084C426.639 134.084 429.639 83.0844 427.139 80.0844C424.639 77.0844 383.639 75.5844 382.639 80.0844C381.639 84.5844 386.139 134.584 380.639 139.084C375.139 143.584 352.139 139.084 352.139 139.084L352.196 129.084M351.825 36.0106L352.139 29.0844C351.986 28.9889 351.825 28.8918 351.659 28.7934M351.825 36.0106C351.749 33.5729 351.692 31.1511 351.659 28.7934M92.1394 104.584V152.084C102.139 152.918 122.739 149.984 125.139 131.584C127.539 113.184 105.139 105.918 93.6394 104.584H92.1394Z" stroke="black"/>
</svg>
